# xmcd
#
# Track frame offsets:
#	150
#	16830
#	35090
#	53082
#	71402
#	86220
#	102085
#	119605
#	135280
#	151612
#
# Disc length: 2279 seconds
#
# Revision: 3
# Processed by: cddbd v1.5.2PL0 Copyright (c) Steve Scherf et al.
# Submitted via: EasyCDDAExtractor 9.1.3.1
#
DISCID=7708e50a
DTITLE=Ronnie Milsap - Inside
DYEAR=1982
DGENRE=Country
TTITLE0=Any Day Now
TTITLE1=Inside
TTITLE2=Carolina Dreams
TTITLE3=Wrong End Of The Rainbow
TTITLE4=I Love New Orleans Music
TTITLE5=He Got You
TTITLE6=Hate The Lies-Love The Liar
TTITLE7=Who's Counting
TTITLE8=You Took Her Off My Mind (Now Take Her Off My Mind)
TTITLE9=It's Just A Room
EXTD=
EXTT0=
EXTT1=
EXTT2=
EXTT3=
EXTT4=
EXTT5=
EXTT6=
EXTT7=
EXTT8=
EXTT9=
PLAYORDER=
